<svg width="32" height="32" viewBox="0 0 32 32" fill="none" xmlns="http://www.w3.org/2000/svg">
<path d="M15 15.5C15 16.4283 14.6313 17.3185 13.9749 17.9749C13.3185 18.6313 12.4283 19 11.5 19C10.5717 19 9.6815 18.6313 9.02513 17.9749C8.36875 17.3185 8 16.4283 8 15.5C8 14.5717 8.36875 13.6815 9.02513 13.0251C9.6815 12.3687 10.5717 12 11.5 12C12.4283 12 13.3185 12.3687 13.9749 13.0251C14.6313 13.6815 15 14.5717 15 15.5ZM14.957 19H17.043C17.1419 19 17.2386 19.0294 17.3209 19.0844C17.4031 19.1394 17.4672 19.2176 17.505 19.309C17.5428 19.4004 17.5526 19.501 17.5332 19.598C17.5138 19.6951 17.466 19.7841 17.396 19.854L16.354 20.896C16.3076 20.9426 16.2524 20.9795 16.1916 21.0047C16.1309 21.0299 16.0658 21.0429 16 21.0429C15.9342 21.0429 15.8691 21.0299 15.8084 21.0047C15.7476 20.9795 15.6924 20.9426 15.646 20.896L14.604 19.854C14.534 19.7841 14.4862 19.6951 14.4668 19.598C14.4474 19.501 14.4572 19.4004 14.495 19.309C14.5328 19.2176 14.5969 19.1394 14.6791 19.0844C14.7614 19.0294 14.8581 19 14.957 19ZM16 22C15.4696 22 14.9609 22.2107 14.5858 22.5858C14.2107 22.9609 14 23.4696 14 24V25C14 25.5304 14.2107 26.0391 14.5858 26.4142C14.9609 26.7893 15.4696 27 16 27C16.5304 27 17.0391 26.7893 17.4142 26.4142C17.7893 26.0391 18 25.5304 18 25V24C18 23.4696 17.7893 22.9609 17.4142 22.5858C17.0391 22.2107 16.5304 22 16 22ZM20.5 19C20.9596 19 21.4148 18.9095 21.8394 18.7336C22.264 18.5577 22.6499 18.2999 22.9749 17.9749C23.2999 17.6499 23.5577 17.264 23.7336 16.8394C23.9095 16.4148 24 15.9596 24 15.5C24 15.0404 23.9095 14.5852 23.7336 14.1606C23.5577 13.736 23.2999 13.3501 22.9749 13.0251C22.6499 12.7001 22.264 12.4423 21.8394 12.2664C21.4148 12.0905 20.9596 12 20.5 12C19.5717 12 18.6815 12.3687 18.0251 13.0251C17.3687 13.6815 17 14.5717 17 15.5C17 16.4283 17.3687 17.3185 18.0251 17.9749C18.6815 18.6313 19.5717 19 20.5 19Z" fill="white"/>
<path d="M24.806 4.725C26.288 3.234 29 4.178 29 6.43V19.528C29.6299 20.0902 30.1338 20.7793 30.4785 21.55C30.8232 22.3207 31.0009 23.1557 31 24V30C31 30.2652 30.8946 30.5196 30.7071 30.7071C30.5196 30.8946 30.2652 31 30 31H2C1.73478 31 1.48043 30.8946 1.29289 30.7071C1.10536 30.5196 1 30.2652 1 30V24C1 22.223 1.773 20.626 3 19.528V6.43C3 4.17 5.723 3.245 7.203 4.719L11.57 9H20.558L24.806 4.725ZM26.728 6.035C26.6439 5.99889 26.5508 5.98911 26.461 6.00696C26.3712 6.02482 26.2889 6.06946 26.225 6.135L21.39 11H10.753L5.793 6.137C5.72673 6.0705 5.64203 6.02542 5.54986 6.00759C5.45769 5.98976 5.36229 6.00001 5.276 6.037C5.19365 6.0638 5.12223 6.1166 5.07246 6.18747C5.02269 6.25834 4.99726 6.34344 5 6.43V6.793L8.146 9.939C8.28539 10.0783 8.39596 10.2437 8.47141 10.4258C8.54685 10.6078 8.58568 10.8029 8.58568 11C8.58568 11.1971 8.54685 11.3922 8.47141 11.5742C8.39596 11.7563 8.28539 11.9217 8.146 12.061L5 15.207V19.416C5.76102 19.0839 6.59277 18.9465 7.42017 19.0163C8.24757 19.086 9.04456 19.3608 9.73921 19.8157C10.4339 20.2706 11.0043 20.8913 11.399 21.6218C11.7937 22.3523 12.0002 23.1697 12 24V29H20V24C19.9998 23.1697 20.2063 22.3523 20.601 21.6218C20.9957 20.8913 21.5661 20.2706 22.2608 19.8157C22.9554 19.3608 23.7524 19.086 24.5798 19.0163C25.4072 18.9465 26.239 19.0839 27 19.416V15.207L23.854 12.061C23.7146 11.9217 23.604 11.7563 23.5286 11.5742C23.4532 11.3922 23.4143 11.1971 23.4143 11C23.4143 10.8029 23.4532 10.6078 23.5286 10.4258C23.604 10.2437 23.7146 10.0783 23.854 9.939L27 6.793V6.43C27.0032 6.34377 26.9785 6.25882 26.9295 6.18781C26.8804 6.1168 26.8098 6.06255 26.728 6.035ZM27 8.208L24.56 10.648C24.4663 10.7418 24.4136 10.8689 24.4136 11.0015C24.4136 11.1341 24.4663 11.2612 24.56 11.355L27 13.793V8.208ZM5 13.793L7.44 11.353C7.53374 11.2592 7.58639 11.1321 7.58639 10.9995C7.58639 10.8669 7.53374 10.7398 7.44 10.646L5 8.208V13.793ZM11 24C11 22.52 10.196 21.227 9 20.535V22.5C9 22.6326 8.94732 22.7598 8.85355 22.8536C8.75979 22.9473 8.63261 23 8.5 23C8.36739 23 8.24021 22.9473 8.14645 22.8536C8.05268 22.7598 8 22.6326 8 22.5V20.126C7.34403 19.9571 6.65597 19.9571 6 20.126V22.5C6 22.6326 5.94732 22.7598 5.85355 22.8536C5.75979 22.9473 5.63261 23 5.5 23C5.36739 23 5.24021 22.9473 5.14645 22.8536C5.05268 22.7598 5 22.6326 5 22.5V20.535C4.39165 20.886 3.88651 21.3911 3.53541 21.9993C3.1843 22.6076 2.99964 23.2977 3 24V29H11V24ZM29 24C29 22.52 28.196 21.227 27 20.535V22.5C27 22.6326 26.9473 22.7598 26.8536 22.8536C26.7598 22.9473 26.6326 23 26.5 23C26.3674 23 26.2402 22.9473 26.1464 22.8536C26.0527 22.7598 26 22.6326 26 22.5V20.126C25.344 19.9571 24.656 19.9571 24 20.126V22.5C24 22.6326 23.9473 22.7598 23.8536 22.8536C23.7598 22.9473 23.6326 23 23.5 23C23.3674 23 23.2402 22.9473 23.1464 22.8536C23.0527 22.7598 23 22.6326 23 22.5V20.535C22.3917 20.886 21.8865 21.3911 21.5354 21.9993C21.1843 22.6076 20.9996 23.2977 21 24V29H29V24Z" fill="white"/>
</svg>
